/* XPM */
static char *e071002efe754164f86df998b04eedbbCTiG8QUUwhkJDkHU[] = {
/* columns rows colors chars-per-pixel */
"50 50 58 1 ",
"  c None",
". c black",
"X c #010000",
"o c #010100",
"O c #020101",
"+ c #030202",
"@ c #040302",
"# c #040303",
"$ c #040401",
"% c #070401",
"& c #05070B",
"* c #0B0B0B",
"= c #0C0908",
"- c #1E1207",
"; c gray7",
": c #1E1813",
"> c #241609",
", c #201914",
"< c #2A211B",
"1 c #2D241D",
"2 c #3E3C1A",
"3 c gray13",
"4 c #42342A",
"5 c #612226",
"6 c #612227",
"7 c #68252A",
"8 c #6B421A",
"9 c #7A4B1E",
"0 c #1F2D44",
"q c #23324C",
"w c #2E4263",
"e c #304467",
"r c #855221",
"t c #C8443C",
"y c #816653",
"u c #826753",
"i c #987861",
"p c #868339",
"a c #A8A548",
"s c #B9B54F",
"d c #AA866D",
"f c #C59C7F",
"g c #DBD65E",
"h c #E3DE61",
"j c #F7F26A",
"k c #FAF66B",
"l c #FEF96D",
"z c #9F9F9F",
"x c #A7A7A7",
"c c #D5A888",
"v c #E2B291",
"b c #E2B391",
"n c #EFBD9A",
"m c #F6C29E",
"M c #F8C49F",
"N c #F9C5A0",
"B c #EAEAEA",
"V c white",
/* pixels */
"                                                  ",
"                                                  ",
"                                                  ",
"                                                  ",
"                       8rrrr                      ",
"                      rrrrrrr%                    ",
"                     rr:NNNNor                    ",
"                    rrN@NNNNNNr                   ",
"                    rNNNNNNoVo9                   ",
"                    rNVVVoNVVVN                   ",
"                    >NVVVVNVVVN                   ",
"                    -NVVVoN1VcN                   ",
"                    rN@yNNNNNNNv                  ",
"                    NNNNNN4NNNN                   ",
"                     =NN6777oN                    ",
"                     lNN7td6N                     ",
"                    lllliNN%l                     ",
"                   lllllllllll                    ",
"                   llsllllllll                    ",
"                  Nfallllllpoll                   ",
"                 NN lllllll  NN                   ",
"                oN  lllllll   N                   ",
"                NM  lllllll   N                   ",
"                N   lllllll   No                  ",
"               NN  olllllll   Ny                  ",
"              oN   2lllllll   NN                  ",
"            oNNN   jllllllk   oN                  ",
"            N: N   lllllllg    N                  ",
"                   jllllllh    nN                 ",
"                    eeeeewo     <                 ",
"                    eee eee     ov                ",
"                    ee& oee                       ",
"                    eeo  eeo                      ",
"                    ee   wee                      ",
"                    ee    ee                      ",
"                    ee    eeo                     ",
"                    ee     ee                     ",
"                    ee     ee                     ",
"                   qee     ee                     ",
"                   ee      ee                     ",
"                   ee      ee                     ",
"                  eeo      ee                     ",
"                  ee       oe                     ",
"                 oe0        eo                    ",
"                 ox3       oBBB                   ",
"                 oBBB       BBBB*                 ",
"                  ;BBz                            ",
"                                                  ",
"                                                  ",
"                                                  "
};
