/* XPM */
static char *fa82ddd9cc6f42f2fd0f8bf8ec0b8b58RRgNp41mwW7oT51e[] = {
/* columns rows colors chars-per-pixel */
"50 50 239 2 ",
"   c None",
".  c #11410B",
"X  c #167F07",
"o  c #127227",
"O  c #058405",
"+  c #0B8504",
"@  c #0B8A03",
"#  c #05830A",
"$  c #0C850A",
"%  c #0E8A0C",
"&  c #048907",
"*  c #128504",
"=  c #128D07",
"-  c #13850C",
";  c #128C0C",
":  c #1F840C",
">  c #0D920C",
",  c #0E9B0B",
"<  c #07900F",
"1  c #149104",
"2  c #149F05",
"3  c #11930B",
"4  c #1A990B",
"5  c #0B8513",
"6  c #0E8A12",
"7  c #068615",
"8  c #138613",
"9  c #128C13",
"0  c #198A18",
"q  c #0D9412",
"w  c #159212",
"e  c #179917",
"r  c #25970B",
"t  c #2F9A12",
"y  c #14A509",
"u  c #0BB50B",
"i  c #0BBC08",
"p  c #15BE07",
"a  c #1BBC04",
"s  c #13B30E",
"d  c #14BE0B",
"f  c #1BBD0B",
"g  c #1BB406",
"h  c #14A112",
"j  c #1AA815",
"k  c #16B311",
"l  c #1CB412",
"z  c #14BD15",
"x  c #1CBB13",
"c  c #1DB71B",
"v  c #11B718",
"b  c #0BA104",
"n  c #2AA60F",
"m  c #20BF07",
"M  c #28BC08",
"N  c #2BA414",
"B  c #27A91A",
"V  c #2CB213",
"C  c #23BB1B",
"Z  c #23BA19",
"A  c #36B51C",
"S  c #3CBD1C",
"D  c #35BB15",
"F  c #36A412",
"G  c #158723",
"H  c #2BB522",
"J  c #499A11",
"K  c #46BA0B",
"L  c #44AA14",
"P  c #47B517",
"I  c #55BA1B",
"U  c #72A01E",
"Y  c #64B81E",
"T  c #4BBD27",
"R  c #79B93B",
"E  c #0DC50A",
"W  c #13C205",
"Q  c #1AC005",
"!  c #15C30C",
"~  c #1AC20D",
"^  c #10CB0F",
"/  c #0EC114",
"(  c #15C412",
")  c #1BC213",
"_  c #1AC61B",
"`  c #23C20D",
"'  c #2BC20C",
"]  c #2CCA0D",
"[  c #3BCB0B",
"{  c #37C50D",
"}  c #31D00D",
"|  c #24C213",
" . c #2DC311",
".. c #26C517",
"X. c #34C412",
"o. c #3DC413",
"O. c #3CC618",
"+. c #3FC923",
"@. c #43CA0C",
"#. c #46C90D",
"$. c #59CA08",
"%. c #4BD008",
"&. c #43C513",
"*. c #4DC613",
"=. c #44CB14",
"-. c #4ACB15",
";. c #44C51B",
":. c #4AC51C",
">. c #44CC1A",
",. c #4BCB1A",
"<. c #55CB15",
"1. c #5CCD14",
"2. c #53CB1B",
"3. c #58CA1A",
"4. c #4BD113",
"5. c #4BD21B",
"6. c #45D519",
"7. c #51D218",
"8. c #5AD419",
"9. c #6CD20C",
"0. c #7ADB0C",
"q. c #66CB18",
"w. c #77CB16",
"e. c #68D519",
"r. c #7CD513",
"t. c #79DB10",
"y. c #77D41C",
"u. c #7CD61D",
"i. c #7BDB1C",
"p. c #76D818",
"a. c #74C907",
"s. c #48CC24",
"d. c #55CD22",
"f. c #52C82A",
"g. c #44D321",
"h. c #4DD021",
"j. c #52D121",
"k. c #5AD621",
"l. c #57D72D",
"z. c #67CA26",
"x. c #7EC223",
"c. c #6ED623",
"v. c #6BDB25",
"b. c #6BD627",
"n. c #72D521",
"m. c #7DD522",
"M. c #72DB24",
"N. c #7CD924",
"B. c #75D528",
"V. c #7CD429",
"C. c #7ADA29",
"Z. c #7FDB30",
"A. c #62CA36",
"S. c #71E324",
"D. c #53AB45",
"F. c #4ECA41",
"G. c #5ED049",
"H. c #59CD4C",
"J. c #7FCF57",
"K. c #6AC950",
"L. c #84D70A",
"P. c #83DB14",
"I. c #83D41C",
"U. c #83DB1C",
"Y. c #88D818",
"T. c #9BDC15",
"R. c #99DA18",
"E. c #AFDE0C",
"W. c #B3DB19",
"Q. c #9EE90B",
"!. c #8CE515",
"~. c #9AE31D",
"^. c #99E516",
"/. c #ADEC0D",
"(. c #A4E909",
"). c #B4EB0E",
"_. c #AEEC10",
"`. c #ACE51C",
"'. c #A7E918",
"]. c #B3EC13",
"[. c #B2E91D",
"{. c #B4F010",
"}. c #A9F413",
"|. c #83CF20",
" X c #83D623",
".X c #82DA23",
"XX c #8ADA23",
"oX c #82DB29",
"OX c #88D42B",
"+X c #97D829",
"@X c #89DB37",
"#X c #92D937",
"$X c #8AC83F",
"%X c #87E527",
"&X c #8DE331",
"*X c #92E329",
"=X c #A6E223",
"-X c #ABEA24",
";X c #B4E626",
":X c #ABF02E",
">X c #C9EA2C",
",X c #F3F435",
"<X c #94DE41",
"1X c #94DA55",
"2X c #A1DE57",
"3X c #92E554",
"4X c #97CC77",
"5X c #B7DE79",
"6X c #CEED4F",
"7X c #CFF265",
"8X c #DEF078",
"9X c #E0F177",
"0X c #ABDC86",
"qX c #AEE68B",
"wX c #B7EEAC",
"eX c #C5F28A",
"rX c #CBEE8B",
"tX c #E7F58D",
"yX c #CDEDAE",
"uX c #D9F7B5",
"iX c #C7ECBA",
"pX c #F0EEAE",
"aX c #E1F4BC",
"sX c #F4EDB1",
"dX c #DDEFD2",
"fX c #DAF8D7",
"gX c #D7F8CA",
"hX c #E9FAC4",
"jX c #F2FCC9",
"kX c #E3FBD2",
"lX c #F4F9D6",
"zX c #EEE9D5",
"xX c #F6F9E6",
"cX c #FAFBEE",
"vX c #F6F4EA",
"bX c #F4F7F5",
"nX c #FDF9FA",
"mX c #F9F6F8",
"MX c #E6FCF2",
/* pixels */
"                                                                                                    ",
"                                                                                                    ",
"                                                                                                    ",
"                                        6.=.*.@.O.=.2.[                                             ",
"                                      7.XXoXP..X.Xu.y.@Xn.e.                                        ",
"                                    K.XXi.P.nX7Xo.7.W o.i..XoX                                      ",
"                                  @.U.I..X.XlX9X9.,.6.-.K.uXN.~.                                    ",
"                                  O.H.! >.=X_.;Xu.eX*.;.>.[ L..Xe..                                 ",
"                                :.d f.&.>.OX-.&._ XXI.*.W $.tXV. X&.                                ",
"                              =.gXaX) ! N.,.9.^.D j u @ h -.N.,XL.u.%X                              ",
"                            ;.1XuXl p p p +X9 % 6 9 G % 6 l z kXi....X+X                            ",
"                          s.;.,.a ! E z ..j % 6 % : @X6 $ ; b .XT.r.E N.                            ",
"                          s.,.,.! W Q ~.) & 6 ).:X;X/.=X@ $ % , ~.P.,X X                            ",
"                        L [ =.p ~ kX;.z ! X ).r O.:.-.X ^ 4 , % =XI.!.U.!.                          ",
"                        1.#X5.,.( .X-.~ 9 * + q v.j.,.,.=.>.h @ F U.&.[.C.                          ",
"                        S..XS.' i | ! ~ 0 * $ 2.5.-.,.,.*.*.| < w i.1.z .X                          ",
"                      !.6XV.~ N._ W ~ , '.d.9 + & # 0 <.&.J q.[ $ y.) ' y.T.                        ",
"                      l.XXk.X. .e.f ~ o.G 6 % ; % * Q.e.=.9 <.f 7 I ' =.U..X                        ",
"                      K oXp } v.*X! ) C.% % % 9 % % % O h.6 q.1.F F X.oXoXM.                        ",
"                      k..XM lX8 p ~ & L + n #.% % 6 ; % + S V N.XXV ( .XOXP.                        ",
"                      %. XC.- xXd ~ t.# - d 3 ; % % ; 9 $ v.@ ].#X~ x oXR.oX                        ",
"                      4. XoX~ j.( ..# B k M % $ 6 % % # $ e.# u.# d ! .XP.rX                        ",
"                      N.2XaXQ M p P ;.c z r ; ; - % -.-.b g y t.8 ) x D y.N.                        ",
"                      <.q.w.2.6.Q $ A f ~ B.% V.; $ k M Z g l.T 6 ~ $ vXP.P.                        ",
"                      7.u.[.u.].% % % ) ! 4 % 5 B h ; l , 0 5.P 7 ( l +Xi.0.T.                      ",
"                    /.v.).].XXT.; % $ x -.0 X % { i.= @ + r Y.N 8 M f i.v.a.                        ",
"                    }.].).vXS - % % 9 p f & w.e { 1.R p oX:. X^ < W / 7.3XXX                        ",
"                    U =X/._.1X$ % ; e d  .% `.W.6.A y e.k #X8X' -.E A.P r.,X^.                      ",
"                      eX[./.d.& % % x ~ ~ % >.2.S ~ + Z 3 M.yX*.B.x .XX.sX>XY.                      ",
"                    o >.(.`.k X % % f ~ ~ $ q.f = ,.A 4 5.hX! p @X4 a ;XE.jXY.                      ",
"                      1.'.mXbX< ; % ! ! ) 6 $ ( -.;.>.&.uX* p 3 *.6 a z v. X4.                      ",
"                      +.).).qXX ; % W 3 | & % ].e.'.a.&.,.) 3 1 - D Y. .pX.X'.                      ",
"                      >.B.[.n.$ $ % Q ; ' >.; K ].,.t.I $ ; $ z.9 @.*Xr.5Xu.                        ",
"                      =.'.{.rX% lX% 4.$ ( 5.3 $ $.jXlX-.;.; .XB 8 7.b.jX.XoX                        ",
"                      j.L.U.l.j $ % P $ d.u.>.; $ &.MXf.,.-.5.% 9 ,.&X,Xi.=X                        ",
"                      Q.I.P. XC ; $ B :.-..XN.! A 9 ,.,.,.;.,.$ +.;.g.i.r.                          ",
"                      w.$.;X%X, ..% < V *.1.N..XX X.3 e V 5 @ % o.X m OXu.                          ",
"                        #.rX`...e - X e o.,.8.N P m.@Xd.V.m.: N c X 8..X-X                          ",
"                        -.&.~..Xi v % %X; >.,.$.% $ % $ 5 1 @.3 6 D.=.e.                            ",
"                        $X2.n.i.#X4Xl & q #.; 2 O.;.2 =.7.9 8 C $ B >.,.                            ",
"                          T cX X.Xu.bXR O + O.h - $ j wXu.u i hXXXi.V.                              ",
"                            6.q. X Xu. .zX$ X G.d c z z f  .- 5 I.I.                                ",
"                              f I.:X<.,.,.4.bX* 7 0X@ % $ @ ; P T.q.                                ",
"                              3.,.,.&.~ ` fX6.*.; + ..2 7 % d.q.B.                                  ",
"                                f g.] gX! -.;.dX%.[ fXOXt.%Xy.i.                                    ",
"                                R }. Xz ! @.<.=.mXv vXnXnXcXcXL.                                    ",
"                                    `.[.u f ( M M C.iX|.cXxXa.                                      ",
"                                        '.(.$.$.^.-X~.0.}./.                                        ",
"                                            Y.'.                                                    ",
"                                                                                                    "
};
