/* XPM */
static char *result[] = {
/* columns rows colors chars-per-pixel */
"50 50 28 1 ",
"  c #080604",
". c #0F0B07",
"X c #100C07",
"o c #120E09",
"O c #16120C",
"+ c #1A140E",
"@ c #1B1611",
"# c #1E1914",
"$ c #221C16",
"% c #231E18",
"& c #281F18",
"* c #25211B",
"= c #2A231D",
"- c #2B2621",
"; c #2D2A25",
": c #2F2D28",
"> c #312C25",
", c #322E29",
"< c #35312C",
"1 c #38342F",
"2 c #3A3631",
"3 c #3D3934",
"4 c #413C37",
"5 c #423E38",
"6 c #46413C",
"7 c #48433E",
"8 c #4C4742",
"9 c #524E49",
/* pixels */
"-><<3<-34>6<>>241444232>5-2$-=%*&,=%%=&$$%=$>+;<=>",
"-*;>=>*=<>4->>=41-<1:3,>,=&$=&&-%:@$-@%>$%=O&=--*;",
",<><,;-:>><4->1,><<1:>,<< +@%$$%-->=%%+-O@$@%#*#=#",
"2;,3<>><<41,11>,1>4422,><&$&-=**%**@@%%=<$&&>=+*=*",
";,1<<>>>>>1=2<,11,3<1,,<<@+#==*$&%$$O%#+$$$=&&@#$$",
"<;,>,><>2<>22=>;11<11,1,2OO$$$@@$=$@%+%*=$$$*=$#$$",
":=>>><,<1,;,>:;,,<22,,1,<-*#$#O#oOO$@@&&&-+$*#=%#>",
",-3>,,,1,>;;::,,;>1,>>2;>@$$#O#@+-$$%+$%O=-$$#$%&O",
"<<,:-,113:;3,1<,-::,:112>=@@#*%*##2$##%OO$=+@$$+#*",
":<13::1<1311<632,:<22;:;>*#%$#@#++@@-#O$=%&=$*+O$$",
"<1<<11,1:2<2,32,,,,:,,,:*#*#@%-O####@@+%@*+*$##o#*",
"21::<6<,<311<<3;<,2-:::-<$O@O%##+*#%#@$*,*=+$*$*$-",
"<2>>,22<:331:6-2;-,,:;:1<Oo@####-%-#$+$$*$@##*=**-",
"<3,113<,:313::::::;:,1,::#O%%+%#;*#%$#o$=$###**$$@",
"<;;;,>22:3<:,;:<213,1<,<3#O###%O+%#*%%%@#+$+=$*#&O",
"1><>;2;<<:;:<62<<11<13::2o#*#-#@@@@=#*++$#=#=##*&+",
"*<,<1<1,;3=<1:,;12131;;:3@;###@##$#.+@=&#$O*#*=+#$",
",::<<>1:*<>,;-<<21<13,,-2O+@--*%##O##O@=XO.$*+=O$%",
">,2,1:21<;:<;,2<131,<,;<1-#*@%**O#=#*-##=%@OO+#=+-",
";2<2<<33<,<,,3<<332<,3331#-%%O*-#*$**$#$%@$##1###$",
"&22,,<112<321,1:<311:2;<1##+*#*#*@#>*##*%##$#$=@**",
">,;;,2<>,<,-1><<63;111:::###%--##-#%$#***$$$=**#*#",
">,,:;1,3<-,4<1::2<::,,,<,=*#;-%#-*##$+#+*$#+*%+#=%",
",,,2:,<<<1;,<:<<<:,;;,<,-o-*##*%-*####$$%**-=$#+@*",
";>1;:-:2>,>>:><--::-<3>><@o*@@#$$##$o#+#OOo%-oO-O=",
"&$&$-%%-*#=**;**;***-==@=1432<94>111,3118432,2,<41",
"&>$$%***4#$*$=****##$;1>*1>,1,-<112,<>1;11<;,,;>2<",
"$$$=@&%%,=$=*$$*#**$$++=%>1<3,<,,,1<><8<<<;>-@->;:",
"%$==@&&#$>@>*@%#*#*#=>+@$>1<::-<3>1=<>;-<,*-<<1<<-",
"$@%%#;*%>==**#=*#*$%+$1>$=<2,3>;;2=>;>-;,-*<<*1<>*",
"o-$##*=*>>==$@#==*$#$>&$$>:2>>>><>%4-;,;,<<;%<:-:1",
"@#@@%%$=*>>#&$>+%+#+&=&==<,:,;>>>-4,=<-3<>,=;:::11",
"O++=&$+$O>=$$=$@2>#.===+$1;-31::*<<31<>--,*3::<;-<",
"*$%@OO=**=*$&=*=-$&&%>1,2==,41>=-<<<>>113<--;-3;<4",
"+=$+O$O@&$*=*=$>>*>$=&-@=1;>2:1<<,::2<,42<,<=,;-:3",
"O*%$+#&$+===$=O==-&=$$$$=;1>3:<;<-,:,,>,2,2<;<;,<1",
"*=##*#&;#;=$#=$3&$&=%*%&>1<<<>,>>,<1;><3<,<><,;,;2",
"O*>*=*$=*==@$#*$@-=$$$#%=3<1<3<:<,::<;33,,3->412,1",
"*#$+*$@$#==*=$>$%=*%%$@-+<2<<<<<<,<1>,>32><<,,>43:",
"*$$>*+$@==**$=&=o;@@o%#%+1171124:,<,;1,<>,<,<<4<3>",
"@*$+&**&#$$*#=*#**@@O;:##1;:93,1<,>>1<33,22112::;3",
"++&=$=+>==*+$$==#*@.####=;:-<113<>>1<2<112<,1,;3;4",
"+@$+@#$@=#$+*@##@##%#@#@*,<<1<:>;$;<;3<<::1<2<112<",
"$>+&-=@$O$$$+#+*##*%#,%-*-<;;;>1*-32:<3;::,1,1<<1:",
"$@o*@=$&+=#*###-%%%#,%#*-<<<<:<1:3<2:3<<;;<<,22<,<",
"&X>=#&$$+#+##%**#%*%@#%$;;>-;:::><23<<,;;<<<2,41<2",
"+>@$*-%#$@o*##%#$%-%$*#**;,,>-:-<<<<1::31<:<%,2,,3",
"$$==%#O=*+***%%#%#%#+%%*&:<,:><3<<3<:;<3<1<<<:;>,:",
"##&**O#$>$$*=#+#$=$$+++$$,<<><1:1:><:<<:1<;,11;<<:",
"X$O=@X*X+**+##+O+*+O@@XOO;,>,;=-:;:-;=3#>:-3-;-;:;"
};
