/* XPM */
static char *af47a85fb33f4d9e80a2db8be706655aV725C40kcgRaf77d[] = {
/* columns rows colors chars-per-pixel */
"50 50 150 2 ",
"   c None",
".  c #040606",
"X  c #080707",
"o  c #050908",
"O  c #0A0B0A",
"+  c #040709",
"@  c #110E09",
"#  c #0F100E",
"$  c #12120F",
"%  c #070C10",
"&  c #0D1010",
"*  c #0C111B",
"=  c #141616",
"-  c #1C1E1D",
";  c #191D17",
":  c #21150C",
">  c #201C14",
",  c #25221C",
"<  c #232515",
"1  c #3B2819",
"2  c #0E1524",
"3  c #171F20",
"4  c #11182C",
"5  c #1D2020",
"6  c #17213D",
"7  c #242525",
"8  c #232B2B",
"9  c #2A2C2C",
"0  c #2C2722",
"q  c #332D22",
"w  c #3A2F20",
"e  c #2F3937",
"r  c #293638",
"t  c #2E3C3E",
"y  c #323433",
"u  c #3B3837",
"i  c #353D3C",
"p  c #3B3E3E",
"a  c #4B2A14",
"s  c #472713",
"d  c #522D15",
"f  c #473F2F",
"g  c #463C33",
"h  c #423D38",
"j  c #3E403E",
"k  c #7E421D",
"l  c #414223",
"z  c #494239",
"x  c #636333",
"c  c #7B7A3E",
"v  c #1F2C55",
"b  c #303F41",
"n  c #212F5B",
"m  c #22305E",
"M  c #233160",
"N  c #334244",
"B  c #3E5053",
"V  c #434343",
"C  c #494645",
"Z  c #4A4846",
"A  c #4E4A4A",
"S  c #5B4D41",
"D  c #53514F",
"F  c #4E5050",
"G  c #405356",
"H  c #545554",
"J  c #565858",
"K  c #5D5F5F",
"L  c #5B5856",
"P  c #69594B",
"I  c #635447",
"U  c #53635E",
"Y  c #746349",
"T  c #64615E",
"R  c #475D60",
"E  c #5E6060",
"W  c #556F73",
"Q  c #567074",
"!  c #6A6B6B",
"~  c #696866",
"^  c #667973",
"/  c #767878",
"(  c #7B7D7D",
")  c #777573",
"_  c #8A481F",
"`  c #81441E",
"'  c #877355",
"]  c #8C7757",
"[  c #927C5B",
"{  c #967C69",
"}  c #987E6A",
"|  c #9F846F",
" . c #88827F",
".. c #A68974",
"X. c #B5957D",
"o. c #C3BF5E",
"O. c #D3CF66",
"+. c #E4DF6E",
"@. c #F8F277",
"#. c #638085",
"$. c #7F8181",
"%. c #798E87",
"&. c #7FA4AA",
"*. c #8C8988",
"=. c #978F8A",
"-. c #99918D",
";. c #8F9090",
":. c #9A9B9B",
">. c #979593",
",. c #A69E99",
"<. c #A29A96",
"1. c #A9A19C",
"2. c #90ABA2",
"3. c #87AEB4",
"4. c #ACADAD",
"5. c #B0A7A2",
"6. c #B6ADA8",
"7. c #B9B0AA",
"8. c #C09E84",
"9. c #C6A388",
"0. c #D7B194",
"q. c #DFB79A",
"w. c #E7BD9F",
"e. c #C0B7B2",
"r. c #CABFBA",
"t. c #CDC3BE",
"y. c #F9CCAB",
"u. c #93BDC3",
"i. c #9BC7CE",
"p. c #9BC8CF",
"a. c #9ECBD3",
"s. c #AECCC2",
"d. c #A3D2DA",
"f. c #ABDCE4",
"g. c #C5C6C6",
"h. c #D4CAC4",
"j. c #D6CAC5",
"k. c #DED2CC",
"l. c #D5D5D5",
"z. c #D7D8D8",
"x. c #DBDCDC",
"c. c #E1D4CF",
"v. c #E5D9D3",
"b. c #E2D6D0",
"n. c #C3E5D9",
"m. c #C1E3D7",
"M. c #E4E4E4",
"N. c #EEEEEE",
"B. c #F3F3F3",
"V. c #FFFFFF",
/* pixels */
"                        R                                                                           ",
"                        f.f.o             f.f.                                                      ",
"                      N f.f.f.f..     f.f.f.f.                                                      ",
"            f.f.f.f.d.f.f.f.f.f.f.f.f.f.f.f.f.d.f.f.f.o                                             ",
"              f.f.f.f.f.W v.v.v.v.v.v.v.8 f.f.f.f.f.                                                ",
"              G f.f.- v.v.v.9 u.f.f.f.a.= v.= f.f.r                                                 ",
"      3.f.f.f.f.f.f.v.v.-.v.v.v.v.v.v.v.v.v.t.f.f.f.f.f.                                            ",
"              N f.p v.k.v.v.v.b.v.7.b.v.v.b.v.v.f.a.                                                ",
"      o f.f.f.f.f.e.v.v.M.V.V.V.V.1.D V.V.V.V.z.f.f.f.                                              ",
"              f.L 6.v.v.v.7 *.b.v.v.v. .h.Z t.~ -.f.                                                ",
"          8 f.f.#.y v.v.v.v.v.v.v.v.v.D v.v.v.) B                                                   ",
"                f.f.v.v.v.h.T - i i - Z v.k.h.r                           . d d .                   ",
"                      & v.v.b.b.v.v.v.v.v.O                   : _ _ _ _ _ _ _ _ _ _ _ _ _           ",
"                            . <.H ,.                      ` _ _ _ _ : y.y.y.y.y.y.y.0.1 _ _ _       ",
"                - B.V.V.V.V.W f.f.f.H K V.(           _ _ _ _ 0 y.y.y.y.y.y.y.y.y.y.y.y.y.y.{       ",
"              V.V.V.V.V.;.V.t f.f.f.f.V.g.V.V.o     s _ _ k y.y.y.| { 0.x.V.N.} y.y.y.y.p V.V.V..   ",
"            7 V.V.V.V.i V.V.t f.f.f.f.V.V.V.V .     k _ _ y.y.y.y.y.V.V.V.V.o V.V.y.y.V.V.V.z.9 V.M.",
"            V.V.V.K V.V.V.V.W f.f.f.f.V.V.z.= .     @ _ s y.y.y.y.y.M.V.V.V.V.V.V.y.y.( V.V.V.V.V.. ",
"          V.V.V.V.V.V.V.V.V.&.f.f.f.f.V.V.! 5           _ P y.y.y.y.y.y.X.h | y.y.y.y.y.g y.y.y.y.  ",
"        M.V.V.V.~ V.- V.V.V.f.f.f.f.f.V.V.V.J             y.y.y.y.y.y.y.y.y.y.y.y.y.y...y.y.y.y.,   ",
"      7 V.V.V.  Z V.V.V.V.V.f.f.f.f.f.V.V.V.z.                q.y.y.y.y.y.y.y.y.y.g z w.y.y.y.      ",
"      V.V.V..   Z V.V.V.V.V.f.f.f.f.f.V.V.A V.                    @.I y.y.y.y.y.y.y.y., O           ",
"    V.V.V.V.    Z V.V.$.V.V.f.f.f.f.f./ V.V.V.                  @.@.@.@.@.@.@.@.@.@.@.@.@.<         ",
"    ;.V.V.V.    9 V.V.V.V.x.f.f.f.f.f.i F V.V.9               @.@.@.@.@.@.@.@.@.@.@.@.@.; @.        ",
"    7 V.V.V.    Z V.V.V.4.N f.f.f.f.f.p.V.V.V.V.              @.@.@.@.l @.@.@.@.@.@.@.@.O.@.        ",
"    = V.V.V.    M.V.V.V.V.w 1 ; c c q w V.V.V.V.              @.@.@.@.O @.@.@.@.@.@.@.@.@.@.        ",
"    O V.V.V.    V.V.V.V.V.[ [ [ [ [ [ [ V.V.V.H .           . @.@.@.@.O @.@.@.@.@.@.@.@.@.@.        ",
"      V.V.V.    V.V.V.V.q [ [ [ [ [ [ [ Z V.V.= l.            0 y.y.P @.@.@.@.@.@.@.@.@.@.y.        ",
"      V.V.V..   V.V.V.V.[ [ [ n.n.e [ [ Y V.V.M.V.            # y.y., @.@.@.@.@.@.@.@.@.@.y.        ",
"      V.V.V.. 9 V.V.V.H [ [ [ n.n.^ [ [ [ V.V.V.v.            O y.y.x @.@.@.@.@.@.@.@.@.@.y.        ",
"      b.v.v.5.g.V.V.V.[ [ [ [ n.n.n.[ [ [ :.V.V.v.              y.y.o.@.@.@.@.@.@.@.@.@.@.y.        ",
"  O . r.v.O b.h.V.V.9 [ [ [ z n.n.n.[ [ [ ' V.V.<..             y.y.+.@.@.@.@.@.@.@.@.@.@.q.        ",
"O X O v.u j.v.C V.V.[ [ [ [ + n.n.n.[ [ [ [ V.V..               y.y.@.@.@.@.@.@.@.@.@.@.@.9.        ",
"        C j.=.V.V.; [ [ [ [ i n.n.n.[ [ [ [ $ V./               y.y.M M M M M M M M M M 4 X.        ",
"            O V.) U [ [ [ [ 2.n.n.n.[ [ [ [ q V.B.            O y.y.m m M M M M M M M M 4 y.O       ",
"            :.x.n.%.[ [ [ [ m.n.n.n.] [ [ [ Y n.V.            8.w.7 6 m M M   * M M M M * ..o       ",
"            ;.n.s.9 [ [ [ [       . ' [ [ [ Y n.s.            o ..m M M M M   . M M M M .           ",
"                    [ [ [ [         g [ [ [ [                     M M M M M     M M M M .           ",
"                    [ [ [ [         $ [ [ [ [                     M M M M n     M M M M .           ",
"                    [ [ [ [         . [ [ [ [                     M M M M 6     M M M M .           ",
"                    [ [ [ [         + [ [ [ [                     M M M M 2     M M M M o           ",
"                    [ [ [ [           [ [ [ [                     M M M M .     M M M M             ",
"                    [ [ [ [           [ [ [ [                     M M M M       M M M M             ",
"                    [ [ [ [           [ [ [ [                     M M M M       M M M M             ",
"                    [ [ [ [           [ [ [ [                     M M M n       M M M m             ",
"                    [ [ [ [           [ [ [ [                     M M M 2       M M M 2             ",
"                    [ [ [ [           [ [ [ [                   o M M M         M M m +             ",
"                    V V.V.            y V.V.                    % n n M         V.V.l.              ",
"                    A A A A A @       A A A A A A                 V.V.V.z.      V.V.V.V..           ",
"                    o A A A A A A     X V A A A S A A             . N.V.V.V..     . ~ V.V.V.        "
};
