/* XPM */
static char *_2fa9aed0bbd4e77a9d765f002b1eee6rrYryBBB8TUl0frV[] = {
/* columns rows colors chars-per-pixel */
"50 50 163 2 ",
"   c None",
".  c #020202",
"X  c #0A0503",
"o  c #070805",
"O  c #060609",
"+  c #0B0709",
"@  c #06090B",
"#  c #0B0A0A",
"$  c #150D0A",
"%  c #10100F",
"&  c #19110B",
"*  c #0D0E13",
"=  c #070D15",
"-  c #100F10",
";  c #0F1012",
":  c #141313",
">  c #181617",
",  c #171814",
"<  c #1C1914",
"1  c #121F19",
"2  c #1B1C1A",
"3  c #16161B",
"4  c #2E221A",
"5  c #33261A",
"6  c #1F2228",
"7  c #1E2A2F",
"8  c #2E2927",
"9  c #2B272B",
"0  c #2C292A",
"q  c #262829",
"w  c #202C34",
"e  c #302F33",
"r  c #343332",
"t  c #3A3B3D",
"y  c #343737",
"u  c #680C13",
"i  c #483921",
"p  c #403B3C",
"a  c #62553D",
"s  c #715D3E",
"d  c #3E3F42",
"f  c #364748",
"g  c #444549",
"h  c #4D4D4D",
"j  c #534D4F",
"k  c #4D4E51",
"l  c #505153",
"z  c #5C5751",
"x  c #5A5A56",
"c  c #5D5C5C",
"v  c #605D5D",
"b  c #625D60",
"n  c #586970",
"m  c #676869",
"M  c #68686A",
"N  c #6D7164",
"B  c #78726F",
"V  c #726F70",
"C  c #727375",
"Z  c #777876",
"A  c #7B7B74",
"S  c #846C4C",
"D  c #807049",
"F  c #8E774D",
"G  c #8E794C",
"H  c #90774E",
"J  c #917A4C",
"K  c #8E7750",
"L  c #937A52",
"P  c #9A7D59",
"I  c #669723",
"U  c #96EE1E",
"Y  c #92E616",
"T  c #8FCD35",
"R  c #9DE23C",
"E  c #908158",
"W  c #9E8863",
"Q  c #8CCE49",
"!  c #B7F568",
"~  c #637B86",
"^  c #5C8785",
"/  c #878587",
"(  c #8F8D8D",
")  c #8B8784",
"_  c #8B908F",
"`  c #AEA396",
"'  c #82B4B9",
"]  c #A5A5A4",
"[  c #ACA7A6",
"{  c #A6A6A9",
"}  c #AAAAAC",
"|  c #B5AEA4",
" . c #B1AEB0",
".. c #B9B9BA",
"X. c #BCCCB9",
"o. c #DBFC81",
"O. c #DDFD9B",
"+. c #E0FD9C",
"@. c #C9C4B9",
"#. c #AACEDE",
"$. c #A4E0DF",
"%. c #97DCE0",
"&. c #B5DDF6",
"*. c #B3DEF9",
"=. c #B8DEF9",
"-. c #A4E1E2",
";. c #ACE4E7",
":. c #ABEAED",
">. c #ADE8E5",
",. c #B1E9E9",
"<. c #ACEEF1",
"1. c #BDE4F4",
"2. c #B3EFF2",
"3. c #BFE8F5",
"4. c #BCE2F9",
"5. c #B4E0F4",
"6. c #CCC8C6",
"7. c #CDCBCC",
"8. c #C6C5C3",
"9. c #CADDC6",
"0. c #CBDDC9",
"q. c #DFD3CA",
"w. c #D2DFCA",
"e. c #D4D3D3",
"r. c #DDDCDB",
"t. c #E0D1C6",
"y. c #E1D2CA",
"u. c #E5D9D1",
"i. c #E9DCD5",
"p. c #ECDFD8",
"a. c #CDE0CB",
"s. c #D1E4CC",
"d. c #DAEBD4",
"f. c #D2EBD1",
"g. c #DEF2DC",
"h. c #F3FECC",
"j. c #E9E3DB",
"k. c #E9FED8",
"l. c #DEDDE1",
"z. c #C8E1EE",
"x. c #CDECEE",
"c. c #C7EDFF",
"v. c #C3E5F6",
"b. c #C3F5FC",
"n. c #E1E0E0",
"m. c #EAE9E7",
"M. c #EDECEC",
"N. c #EDE4E0",
"B. c #F4E7E5",
"V. c #F9EDE8",
"C. c #F7EBE3",
"Z. c #E1F1E6",
"A. c #F4F4F5",
"S. c #F8F7F8",
"D. c #F7F9F8",
"F. c #FDFDFF",
"G. c #FEFDFF",
"H. c #FFFEFE",
"J. c #FFFEFF",
"K. c white",
"L. c #FEFEFF",
"P. c #FEFDFD",
"I. c #FEFEFE",
/* pixels */
"                                                                          *                         ",
"                                                            + 1.      f &.#.                        ",
"                                                            4.&.* O &.&.&.q                         ",
"                                                        1.t &.*.v.4.&.&.&.q       @                 ",
"                                                        b.1.i.t.t.t.t.p.1.&.&.&.w                   ",
"                                                        : x.O y.7 n . y.y.c.&..                     ",
"                                                      _ P.P.. . P.P.S.t.t.: &.&.=.=                 ",
"                                                      ( P.P.P.> P.P.P.j.t.. &.&.4.@                 ",
"                                                      . O C.B.y.V.z p.i.y.. &.4.:                   ",
"                                                        O u.. q.t.t.t.y.q.t.@ *.v.C                 ",
"                                                        . . | ` . : O u.i.~ *.j                     ",
"                                                          ] @.C r X # j.. z.                        ",
"                                                              C.q.q.q.2                             ",
"                                                              0 7.O % ^ P.P.2                       ",
"                                                          . P.O D.$.-.f P.P.P.P.P.                  ",
"                                                          P.P.P.0 -.-.f P.8.P.b P.P.P.              ",
"          T k.Q                                           P.P.P.O $.-.^ P.P.P.@   7.P.P.P.          ",
"          h.Y o.                                        { P.@ P.. -.-.%.P.3 P.C       P.P.P.P.      ",
"          +.O.U                                         o P.] P.* -.-.,.P.# P.r.          C P.P.M.  ",
"  3 7.7.e.I ! R , u 0 r.9                               P.P.P.P.%.-.-.;.P.P...F.          9 P.P.h   ",
"  . 7.e.e.e.r.i.n.{ g . M r.j.O                         P.P.A.P.2.-.-.-.P.P.P.P.          P.P.P.    ",
"                v q O . . u.t + 7.7.e P.P.P.e.M g y t m P.P.F.P.;.-.-.;.P.2 P.P.        P.P.P.      ",
"                                c o F.P.P.P.P.P.P.P.P.P.P.m.P.P.-.-.-.-.} P.P.P.    , P.P.P.        ",
"                                                            P.P.-.-.-.-.O P.P.P.9 O P.P.P.          ",
"                                                            P.F.-.-.-.$.,.P.P.P./ P.P.F.            ",
"                                                            P.c 1 :.2.:.b.P.P.P.. <.O               ",
"                                                            P.. K S 5 $ X d.P.F.q.t.[               ",
"                                                            P.4 H G K F G # P.S.y.t.N.              ",
"                                                            P.W F F # 9.f.J P.P.P.:                 ",
"                                                          k P.G H G g.9.f.K c P.P.M.                ",
"                                                          o A.H H G 9.9.d.H L P.P.P.                ",
"                                                          ) . K G G 9.9.X.F G  .P.P.x               ",
"                                                          P.l.G F & 9.9.N G G Z P.P.t               ",
"                                                          F.. F F X 9.9.q F H g.o P.P.              ",
"                                                        : o . F G Z.9.9.. F F d.0.P.P.c             ",
"                                                        P.0.E K K 0.0.9.. F G a.0.w.P.7.            ",
"                                                        y 9.J F J a.s.s.. G J 0.9.9.w.G.            ",
"                                                      @ x   J G i       . G G       } q O           ",
"                                                            L H s       : F G                       ",
"                                                            a G E       A J F                       ",
"                                                            . F J         F F 8                     ",
"                                                            + G H         H F .                     ",
"                                                              G F         P H s                     ",
"                                                              L F         < H J                     ",
"                                                              J G         8 H J                     ",
"                                                              # P.          P.-                     ",
"                                                              . P.;         G.f                     ",
"                                                          2 h h h h       h h h .                   ",
"                                                      h h h h h h l   @ j h h h r                   ",
"                                                                      o . (                         "
};
