/* XPM */
static char *result[] = {
/* columns rows colors chars-per-pixel */
"50 50 108 2 ",
"   c #0C0C0C",
".  c #0E0E0E",
"X  c #101010",
"o  c #111111",
"O  c gray7",
"+  c gray8",
"@  c #151515",
"#  c #161616",
"$  c gray9",
"%  c #181818",
"&  c #191919",
"*  c gray10",
"=  c #1B1B1B",
"-  c gray11",
";  c #1D1D1D",
":  c #1E1E1E",
">  c gray12",
",  c #202020",
"<  c gray13",
"1  c #222222",
"2  c #232323",
"3  c gray14",
"4  c #252525",
"5  c gray15",
"6  c #272727",
"7  c #282828",
"8  c gray16",
"9  c #2A2A2A",
"0  c gray17",
"q  c #2C2C2C",
"w  c #2D2D2D",
"e  c gray18",
"r  c #2F2F2F",
"t  c gray19",
"y  c #313131",
"u  c #323232",
"i  c gray20",
"p  c #343434",
"a  c #353535",
"s  c gray21",
"d  c #373737",
"f  c gray22",
"g  c #393939",
"h  c #3A3A3A",
"j  c gray23",
"k  c #3C3C3C",
"l  c gray24",
"z  c #3E3E3E",
"x  c #3F3F3F",
"c  c gray25",
"v  c #414141",
"b  c gray26",
"n  c #434343",
"m  c #444444",
"M  c gray27",
"N  c #464646",
"B  c gray28",
"V  c #484848",
"C  c #494949",
"Z  c gray29",
"A  c #4B4B4B",
"S  c #4C4C4C",
"D  c gray30",
"F  c #4E4E4E",
"G  c gray31",
"H  c #505050",
"J  c #515151",
"K  c gray32",
"L  c #535353",
"P  c gray33",
"I  c #555555",
"U  c #565656",
"Y  c gray34",
"T  c #585858",
"R  c gray35",
"E  c #5A5A5A",
"W  c #5B5B5B",
"Q  c gray36",
"!  c #5D5D5D",
"~  c gray37",
"^  c #5F5F5F",
"/  c #606060",
"(  c gray38",
")  c #626262",
"_  c gray39",
"`  c #646464",
"'  c #656565",
"]  c gray40",
"[  c #676767",
"{  c #686868",
"}  c DimGray",
"|  c #6A6A6A",
" . c gray42",
".. c #6C6C6C",
"X. c #6D6D6D",
"o. c gray43",
"O. c #6F6F6F",
"+. c gray44",
"@. c #717171",
"#. c #727272",
"$. c gray45",
"%. c #747474",
"&. c gray46",
"*. c #767676",
"=. c #777777",
"-. c gray47",
";. c #797979",
":. c None",
/* pixels */
"' ) ] #.#.#.@.@.+.@.&.$.O.o.@.$.} $.} o.$.$.#.*.%.*.*.%.&.-.=.%.@.$.-.=.O.$.#.#.@.+.%.O.( T :.:.:.:.",
":.N I Q T T ! W Y L F N F J K U ! R P R Q W W Y I E R A J T J Y Y Y R U K T Y W W R Y ! W A ~ U b   ",
":.:.:.:.:.m V M z s y s s g g h x z j s b b d x c z q i l v k z x r s c n m n n b n l s l x v p 0 < ",
":.:.:.:.:.:.:.:.:.Q T L K S D J N F C b n t s l g p a q y w g u u 9 4 = = , < 9 :.:.:.:.:.:.:.:.:.:.",
":.:.:.:.:.:.:.:.:.L K Y L G F G j s x d V m c x k p g t y p i s 0 w 6 > - ; 4 0 :.:.:.:.:.:.:.:.:.:.",
":.:.:.:.:.:.:.:.:.! R Y J M G K H J N A H x m g g a i u a i a a w r 4 > : - , 8 :.:.:.:.:.:.:.:.:.:.",
":.:.:.:.:.:.:.:.:./ Y J b m L P M Z G G V n z j j y a p e s y y r e 5 5 1 ; , 7 :.:.:.:.:.:.:.:.:.:.",
":.:.:.:.:.:.:.:.:.! T P l B n K G M S v d n x g g d p e q w g s y 7 1 > - ; , 3 :.:.:.:.:.:.:.:.:.:.",
":.:.:.:.:.:.:.:.:.J ^ Q E F S L L b z b g n v g s i u 9 r p i e r 8 1 < + # ; 2 :.:.:.:.:.:.:.:.:.:.",
":.:.:.:.:.:.:.:.:.^ U T Y H P D J J Z C C m b i i i r 7 0 w w w 8 2 : % * - > 9 :.:.:.:.:.:.:.:.:.:.",
":.:.:.:.:.:.:.:.:.) ) T E R J K E I J S b b v n y 9 i 4 e r y t r q + = 2 7 0 e :.:.:.:.:.:.:.:.:.:.",
":.:.:.:.:.:.:.:.:._ ) R W Y M G Q F M v h f d l y 8 r $ , 2 w w w 0 1 & - * = 1 :.:.:.:.:.:.:.:.:.:.",
":.:.:.:.:.:.:.:.:.` R Y G R G A S F b C m d 0 a e 9 : 2 5 y e w e : # $ @ * 6 5 :.:.:.:.:.:.:.:.:.:.",
":.:.:.:.:.:.:.:.:.! ! Q Y Q K H I I K m g v x Z l j u 3 e a b d p 9 3 > 2 1 3 6 :.:.:.:.:.:.:.:.:.:.",
":.:.:.:.:.:.:.:.:.Q _ ) Q U Y k F H N M V A M C N f u y p p j y y 9 , , < 1 2 e :.:.:.:.:.:.:.:.:.:.",
":.:.:.:.:.:.:.:.:.R Q T G G T ! E U A P H m x G B m l j d u c v i r 5 : ; < , 9 :.:.:.:.:.:.:.:.:.:.",
":.:.:.:.:.:.:.:.:.] / E V F Y S J C C Z J J z Z v v f e t y u p i r , = ; < 4 7 :.:.:.:.:.:.:.:.:.:.",
":.:.:.:.:.:.:.:.:.! ^ ! E K L ~ P z Z P K C C b x h 0 w w u j d f 6 > * + - > 8 :.:.:.:.:.:.:.:.:.:.",
":.:.:.:.:.:.:.:.:.[ _ ( W T E W M K b Z F N M b l h i y p x z i 8 7 2 > @ $ ; 8 :.:.:.:.:.:.:.:.:.:.",
":.:.:.:.:.:.:.:.:. .Q J W T T E ' R Z J U F A l d l s < 9 j e r e 7 1 = @ - 1 q :.:.:.:.:.:.:.:.:.:.",
":.:.:.:.:.:.:.:.:.' ~ ^ ! ! L Y W U L F G H n l l g 5 6 i c d i t ; & ; : 1 7 r :.:.:.:.:.:.:.:.:.:.",
":.:.:.:.:.:.:.:.:.} { ] T ) W K E F P b b e 9 h x 9 i , u j 8 8 e r = & * . # , :.:.:.:.:.:.:.:.:.:.",
":.:.:.:.:.:.:.:.:.~ ) / ~ ~ U Y ~ T I H V l h n c g s p a f g u 9 7 ; ; > 4 4 8 :.:.:.:.:.:.:.:.:.:.",
":.:.:.:.:.:.:.:.:.[ | ` Q A Q P ^ L A b U D A S A n z i x m A l a e w 4 , 6 5 w :.:.:.:.:.:.:.:.:.:.",
":.:.:.:.:.:.:.:.:./  .| ` ~ / K ` Y J L P H G G Z c k u j v j f s y q < 7 5 9 i :.:.:.:.:.:.:.:.:.:.",
":.:.:.:.:.:.:.:.:...] R I U Q _ J Y K U I T B S V n f x c b B x l s e 6 3 : 6 j :.:.:.:.:.:.:.:.:.:.",
":.:.:.:.:.:.:.:.:.' ` W T Q Q E J J S E U B N H D C h k n c i w e t 9 : 2 4 4 e :.:.:.:.:.:.:.:.:.:.",
":.:.:.:.:.:.:.:.:.` / ( ` W E ^ R U T W I K G x m b j a t i j k h w 7 > * 2 8 u :.:.:.:.:.:.:.:.:.:.",
":.:.:.:.:.:.:.:.:.T L R ) ) E T ! ~ D Y H U F Z c b b k h v j x y q 7 2 e % 3 2 :.:.:.:.:.:.:.:.:.:.",
":.:.:.:.:.:.:.:.:... .` ^ ~ / _ / ~ I R Y P H G v j h 0 y d s d r 7 % o X - 7 u :.:.:.:.:.:.:.:.:.:.",
":.:.:.:.:.:.:.:.:.}  .] { ( W ^ W F U L L J Z D n z k r 9 t r e a s q 4 6 - q d :.:.:.:.:.:.:.:.:.:.",
":.:.:.:.:.:.:.:.:.@.X./ _ { Q T K E F B D h a M b e 0 a a h h t 9 7 $ X * O X < :.:.:.:.:.:.:.:.:.:.",
":.:.:.:.:.:.:.:.:.} ( _ ) ( Y E { [ W U ~ A Z J D N M z m g b k j p y 4 ; 1 e y :.:.:.:.:.:.:.:.:.:.",
":.:.:.:.:.:.:.:.:.` | ` _ H _ T W P F K W E U B L N N n B V J n g j u 9 w q u d :.:.:.:.:.:.:.:.:.:.",
":.:.:.:.:.:.:.:.:.X.o.O.] ] ! ^ / ` E W ) R L T D z v m m c M b x z y 6 0 q 9 i :.:.:.:.:.:.:.:.:.:.",
":.:.:.:.:.:.:.:.:. .....E ! ' ` ~ ^ ~ Q / W F P A V b n b B m b M j y t 8 4 y e :.:.:.:.:.:.:.:.:.:.",
":.:.:.:.:.:.:.:.:.o...{ R H ^ Q W Y R H L P K F G A m v z b Z M m j e 9 < 9 e i :.:.:.:.:.:.:.:.:.:.",
":.:.:.:.:.:.:.:.:.`  .|  ./ ) | ` T L R G P J G K D M f j z S k l h y 7 , = 9 j :.:.:.:.:.:.:.:.:.:.",
":.:.:.:.:.:.:.:.:..._ { ` / ' ~ ' ) Q ! Y Q K Z Z m b f g x b c p u e , : 5 8 t :.:.:.:.:.:.:.:.:.:.",
":.:.:.:.:.:.:.:.:.| @.o.} ~ ] ] _ [ ) P T E T Y S V M p h b m n l j & - 5 9 y h :.:.:.:.:.:.:.:.:.:.",
":.:.:.:.:.:.:.:.:.;.@. .O.` P ( ) ( W E F F S H M z c 4 u r f k z l y 4 q w 0 t :.:.:.:.:.:.:.:.:.:.",
":.:.:.:.:.:.:.:.:.*. .' ( { ~ R / ! A I T S x B v y < 8 q b d h f r ; @ : q w k :.:.:.:.:.:.:.:.:.:.",
":.:.:.:.:.:.:.:.:.+.o. .[ } ` ( ! ) ( E V A I W H A S d v N F A C l p 0 e t i f :.:.:.:.:.:.:.:.:.:.",
":.:.:.:.:.:.:.:.:.} { { } @. .R T ~ W U ! Q T U L L M v n F F B x j 8 8 p e a x :.:.:.:.:.:.:.:.:.:.",
":.:.:.:.:.:.:.:.:.....[ ) T ( [ } _ ^ ( ' Y L T J H D V S n P S v c p 0 7 0 w l :.:.:.:.:.:.:.:.:.:.",
":.:.:.:.:.:.:.:.:.[ %.O.! ^ ] ` ) E K E [ Q H W I H B m v l x N j b s 5 0 9 h b :.:.:.:.:.:.:.:.:.:.",
":.:.:.:.:.:.:.:.:.;.+.} Q ( ~ | { ) ~ E I Q Y T P F C c c n K G N g t 8 3 w e s :.:.:.:.:.:.:.:.:.:.",
"&.*.^ ! ~ ! W Q R o.%.#.X.~ ..[ Y ) L I Y ! J F D F V c b G G N k f a u - 9 r a W Q / Q F :.:.:.:.:.",
"L ~ ..+.o.$.T I H A B M A V Z F T I J L T U Y L F I I B C K A J P K L H D L K I U P H T U G / L j :.",
":.:.:.:.P R F C b j g h g k l x n n c h n m k m v c u s c m c b b a s b M B B B N B c k c b m f w 4 "
};
